<svg width="50" height="51" viewBox="0 0 50 51" fill="none" xmlns="http://www.w3.org/2000/svg">
<path d="M25.0002 0.179932C11.1948 0.179932 0 11.6556 0 25.8127C0 37.1381 7.16332 46.7464 17.0967 50.1359C18.3461 50.3732 18.8048 49.5798 18.8048 48.9028C18.8048 48.2915 18.7816 46.2723 18.7709 44.1304C11.8158 45.681 10.3482 41.106 10.3482 41.106C9.21093 38.1432 7.57234 37.3554 7.57234 37.3554C5.30408 35.7645 7.74332 35.7971 7.74332 35.7971C10.2538 35.9775 11.5757 38.4386 11.5757 38.4386C13.8054 42.3574 17.4241 41.2245 18.8508 40.5695C19.0751 38.9132 19.723 37.7816 20.438 37.1419C14.8851 36.4937 9.04782 34.2958 9.04782 24.4739C9.04782 21.6753 10.0244 19.3887 11.6237 17.5936C11.3641 16.9475 10.5084 14.3408 11.8659 10.81C11.8659 10.81 13.9652 10.1211 18.7427 13.4375C20.7369 12.8696 22.8756 12.5848 25.0002 12.575C27.1248 12.5848 29.2652 12.8696 31.2631 13.4375C36.0348 10.1211 38.1312 10.81 38.1312 10.81C39.492 14.3408 38.6359 16.9475 38.3763 17.5936C39.9793 19.3887 40.9493 21.6753 40.9493 24.4739C40.9493 34.3191 35.1008 36.4869 29.5338 37.1215C30.4306 37.917 31.2296 39.4769 31.2296 41.8684C31.2296 45.2977 31.2006 48.0581 31.2006 48.9028C31.2006 49.5849 31.6506 50.3842 32.9178 50.1325C42.8458 46.7392 50 37.1342 50 25.8127C50 11.6556 38.8069 0.179932 25.0002 0.179932Z" fill="white"/>
<path d="M9.46934 36.9832C9.41428 37.1109 9.21888 37.1487 9.04086 37.0613C8.85953 36.9776 8.75769 36.804 8.81648 36.6763C8.8703 36.5451 9.06611 36.509 9.24703 36.596C9.42877 36.6801 9.53227 36.8554 9.46934 36.9832Z" fill="white"/>
<path d="M10.4815 38.1412C10.3623 38.2545 10.1292 38.2019 9.97106 38.0228C9.80753 37.844 9.77689 37.6051 9.89778 37.49C10.0207 37.3767 10.2468 37.4298 10.4107 37.6085C10.5742 37.7893 10.6061 38.0266 10.4815 38.1412Z" fill="white"/>
<path d="M11.4679 39.6173C11.3147 39.7264 11.0642 39.6241 10.9094 39.3961C10.7562 39.1682 10.7562 38.8948 10.9127 38.7853C11.068 38.6758 11.3147 38.7743 11.4716 39.0005C11.6244 39.2319 11.6244 39.5056 11.4679 39.6173Z" fill="white"/>
<path d="M12.8177 41.0438C12.6807 41.1987 12.3888 41.1571 12.1752 40.9457C11.9566 40.739 11.8957 40.4457 12.0332 40.2908C12.1719 40.1354 12.4654 40.1791 12.6807 40.3888C12.8976 40.5951 12.9639 40.8905 12.8177 41.0438Z" fill="white"/>
<path d="M14.6795 41.8719C14.6191 42.0727 14.338 42.1639 14.0548 42.0786C13.7721 41.9907 13.587 41.7556 13.6441 41.5527C13.7029 41.3506 13.9853 41.2555 14.2705 41.3468C14.5529 41.4342 14.7383 41.6677 14.6795 41.8719Z" fill="white"/>
<path d="M16.7267 42.0252C16.7337 42.2366 16.4936 42.4119 16.1963 42.4153C15.8974 42.4225 15.6557 42.2515 15.6523 42.0435C15.6523 41.83 15.8871 41.6564 16.186 41.6513C16.4832 41.6453 16.7267 41.8151 16.7267 42.0252Z" fill="white"/>
<path d="M18.6304 41.693C18.666 41.8993 18.4594 42.1111 18.1642 42.1671C17.874 42.2219 17.6053 42.0945 17.5685 41.8899C17.5325 41.6786 17.7428 41.4667 18.0326 41.412C18.3281 41.3594 18.5927 41.4833 18.6304 41.693Z" fill="white"/>
</svg>
