<svg width="50" height="51" viewBox="0 0 50 51" fill="none" xmlns="http://www.w3.org/2000/svg">
<path d="M41.6667 0.179932C46.2692 0.179932 50 3.9109 50 8.51326V41.8466C50 46.4491 46.2692 50.1799 41.6667 50.1799H8.33333C3.73097 50.1799 0 46.4491 0 41.8466V8.51326C0 3.9109 3.73097 0.179932 8.33333 0.179932H41.6667ZM41.6667 5.73549H8.33333C6.79922 5.73549 5.55556 6.97915 5.55556 8.51326V41.8466C5.55556 43.3808 6.79922 44.6244 8.33333 44.6244H41.6667C43.2008 44.6244 44.4444 43.3808 44.4444 41.8466V8.51326C44.4444 6.97915 43.2008 5.73549 41.6667 5.73549ZM13.8889 19.6244C15.3134 19.6244 16.4875 20.6967 16.648 22.0782L16.6667 22.4022V36.291C16.6667 37.8252 15.423 39.0688 13.8889 39.0688C12.4644 39.0688 11.2903 37.9965 11.1298 36.615L11.1111 36.291V22.4022C11.1111 20.868 12.3548 19.6244 13.8889 19.6244ZM22.2222 16.8466C23.5869 16.8466 24.7217 17.8307 24.9558 19.1279C25.5175 18.8031 26.0972 18.5103 26.6853 18.2587C28.5386 17.4659 31.3144 17.0298 33.8192 17.8174C35.1322 18.2302 36.4533 19.0107 37.4328 20.3344C38.3069 21.5161 38.7775 22.9533 38.8713 24.5668L38.8889 25.1799V36.291C38.8889 37.8249 37.6453 39.0688 36.1111 39.0688C34.6865 39.0688 33.5125 37.9963 33.352 36.6149L33.3333 36.291V25.1799C33.3333 24.2652 33.1114 23.8347 32.9667 23.6385C32.8175 23.4372 32.5761 23.2502 32.1531 23.1172C31.1856 22.813 29.7947 22.971 28.8703 23.3666C27.4785 23.9618 26.2076 24.8942 25.3442 25.7587L25 26.1238V36.291C25 37.8252 23.7564 39.0688 22.2222 39.0688C20.7976 39.0688 19.6236 37.9965 19.4631 36.615L19.4444 36.291V19.6244C19.4444 18.0903 20.6881 16.8466 22.2222 16.8466ZM13.8889 11.291C15.423 11.291 16.6667 12.5347 16.6667 14.0688C16.6667 15.6029 15.423 16.8466 13.8889 16.8466C12.3548 16.8466 11.1111 15.6029 11.1111 14.0688C11.1111 12.5347 12.3548 11.291 13.8889 11.291Z" fill="white"/>
</svg>
