<svg width="35" height="35" viewBox="0 0 35 35" fill="none" xmlns="http://www.w3.org/2000/svg">
<path fill-rule="evenodd" clip-rule="evenodd" d="M26.6829 17.4563C26.1871 18.3605 25.2246 18.9584 24.1309 18.9584H13.2663L11.6621 21.8751H29.1621V24.7917H11.6621C9.44544 24.7917 8.04544 22.4147 9.11003 20.4605L11.0788 16.9022L5.82878 5.83341H2.91211V2.91675H7.68086L9.05169 5.83341H30.635C31.7434 5.83341 32.4434 7.02925 31.9038 7.99175L26.6829 17.4563ZM26.4702 10.2083H8.75143L12.2077 17.5H22.4452L26.4702 10.2083ZM11.6621 26.2501C10.058 26.2501 8.76006 27.5626 8.76006 29.1668C8.76006 30.771 10.058 32.0835 11.6621 32.0835C13.2663 32.0835 14.5788 30.771 14.5788 29.1668C14.5788 27.5626 13.2663 26.2501 11.6621 26.2501ZM23.3436 29.1668C23.3436 27.5626 24.6415 26.2501 26.2457 26.2501C27.8499 26.2501 29.1624 27.5626 29.1624 29.1668C29.1624 30.771 27.8499 32.0835 26.2457 32.0835C24.6415 32.0835 23.3436 30.771 23.3436 29.1668Z" fill="white"/>
</svg>
