<svg width="35" height="35" viewBox="0 0 35 35" fill="none" xmlns="http://www.w3.org/2000/svg">
<path fill-rule="evenodd" clip-rule="evenodd" d="M20.2998 13.8542H17.3832V9.47917H13.0082V6.5625H17.3832V2.1875H20.2998V6.5625H24.6748V9.47917H20.2998V13.8542ZM8.64787 29.8959C8.64787 28.2917 9.94579 26.9792 11.55 26.9792C13.1541 26.9792 14.4666 28.2917 14.4666 29.8959C14.4666 31.5 13.1541 32.8125 11.55 32.8125C9.94579 32.8125 8.64787 31.5 8.64787 29.8959ZM26.1328 26.9792C24.5286 26.9792 23.2307 28.2917 23.2307 29.8959C23.2307 31.5 24.5286 32.8125 26.1328 32.8125C27.737 32.8125 29.0495 31.5 29.0495 29.8959C29.0495 28.2917 27.737 26.9792 26.1328 26.9792ZM24.0186 19.6874H13.154L11.5498 22.6041H29.0498V25.5207H11.5498C9.33314 25.5207 7.93314 23.1437 8.99772 21.1895L10.9665 17.6312L5.71647 6.5624H2.7998V3.64574H7.56855L13.7811 16.7707H24.0186L29.6623 6.5624L32.1998 7.9624L26.5706 18.1853C26.0748 19.0895 25.1123 19.6874 24.0186 19.6874Z" fill="#D1AB7D"/>
</svg>
