<svg width="35" height="35" viewBox="0 0 35 35" fill="none" xmlns="http://www.w3.org/2000/svg">
<path fill-rule="evenodd" clip-rule="evenodd" d="M0.824219 2.88022L2.88047 0.823975L34.1763 32.1198L32.1201 34.1761L27.9784 30.0344C27.4534 30.7781 26.593 31.2594 25.6159 31.2594C24.0117 31.2594 22.7138 29.9469 22.7138 28.3427C22.7138 27.3656 23.1951 26.5052 23.9242 25.9802L21.9117 23.9677H11.0326C9.42839 23.9677 8.11589 22.6552 8.11589 21.0511C8.11589 20.5406 8.24714 20.0594 8.48047 19.6511L10.4492 16.0781L7.2263 9.28231L0.824219 2.88022ZM12.6361 18.1343L11.0319 21.0509H18.9944L16.0778 18.1343H12.6361ZM29.9913 5.00941H11.2079L14.1246 7.92608H27.5267L23.5017 15.2177H21.4017L24.2309 18.0469C25.0184 17.8427 25.6746 17.3323 26.0538 16.6323L31.2746 7.16774C31.8142 6.20524 31.0996 5.00941 29.9913 5.00941ZM8.13067 28.3426C8.13067 26.7385 9.42859 25.426 11.0328 25.426C12.6369 25.426 13.9494 26.7385 13.9494 28.3426C13.9494 29.9468 12.6369 31.2593 11.0328 31.2593C9.42859 31.2593 8.13067 29.9468 8.13067 28.3426Z" fill="#CF5A5A"/>
</svg>
