<svg width="35" height="35" viewBox="0 0 35 35" fill="none" xmlns="http://www.w3.org/2000/svg">
<path fill-rule="evenodd" clip-rule="evenodd" d="M17.5003 2.91675C9.47949 2.91675 2.91699 9.47925 2.91699 17.5001C2.91699 25.5209 9.47949 32.0834 17.5003 32.0834C25.5212 32.0834 32.0837 25.5209 32.0837 17.5001C32.0837 9.47925 25.5212 2.91675 17.5003 2.91675ZM17.5003 29.1667C11.0691 29.1667 5.83366 23.9313 5.83366 17.5001C5.83366 11.0688 11.0691 5.83341 17.5003 5.83341C23.9316 5.83341 29.167 11.0688 29.167 17.5001C29.167 23.9313 23.9316 29.1667 17.5003 29.1667ZM16.042 10.2084H18.2295V17.7917L24.792 21.7292L23.6253 23.6251L16.042 18.9584V10.2084Z" fill="#D1AB7D"/>
</svg>
