<svg width="35" height="35" viewBox="0 0 35 35" fill="none" xmlns="http://www.w3.org/2000/svg">
<path fill-rule="evenodd" clip-rule="evenodd" d="M17.5003 2.91675C11.8566 2.91675 7.29199 7.48133 7.29199 13.1251C7.29199 20.7813 17.5003 32.0834 17.5003 32.0834C17.5003 32.0834 27.7087 20.7813 27.7087 13.1251C27.7087 7.48133 23.1441 2.91675 17.5003 2.91675ZM10.2087 13.1251C10.2087 9.10008 13.4753 5.83341 17.5003 5.83341C21.5253 5.83341 24.792 9.10008 24.792 13.1251C24.792 17.3251 20.592 23.6105 17.5003 27.5334C14.467 23.6397 10.2087 17.2813 10.2087 13.1251ZM13.8545 13.1251C13.8545 11.1115 15.4868 9.47925 17.5003 9.47925C18.8029 9.47925 20.0064 10.1741 20.6577 11.3022C21.309 12.4302 21.309 13.82 20.6577 14.948C20.0064 16.076 18.8029 16.7709 17.5003 16.7709C15.4868 16.7709 13.8545 15.1386 13.8545 13.1251Z" fill="#D1AB7D"/>
</svg>
